<svg width="37" height="74" viewBox="0 0 37 74" fill="none" xmlns="http://www.w3.org/2000/svg">
<path d="M25.3774 12.8403C24.3993 13.4423 23.8745 15.0789 23.3416 16.0524C22.6515 17.3132 21.8964 18.5366 21.1475 19.7621C19.432 22.5693 17.8419 25.4877 16.0805 28.2673C14.0718 31.4373 11.3103 33.7173 8.876 36.4558C8.03918 37.3972 7.22644 38.3203 6.33123 39.2155C5.67788 39.8688 5.22284 40.5257 5.22284 39.306C5.22284 39.0898 5.44251 38.0845 5.63001 38.0845C6.04986 38.0845 6.43851 38.7025 6.7384 38.944C7.7143 39.7302 8.49967 40.6843 9.50937 41.4549C14.4657 45.2373 19.2012 48.9861 22.7309 54.2127C23.9642 56.039 28.44 60.9171 26.8817 59.3587C24.4569 56.9339 21.4728 54.7551 18.8402 52.4709C15.8231 49.8531 12.6395 47.4761 9.29448 45.289C7.74752 44.2775 3.91753 42.0217 4.00135 39.7584C4.03915 38.7379 5.48777 37.5721 6.08241 36.8177C7.38591 35.164 8.70851 33.5408 9.85998 31.7734C12.2332 28.1309 14.5833 24.4673 17.0419 20.8818C19.6463 17.0837 21.4561 12.9675 23.4547 8.85919C23.7649 8.22164 23.8087 7.60042 24.3143 7.09482C24.3761 7.033 24.2697 8.20737 24.1559 8.46334C21.9655 13.3918 19.5584 18.1124 16.3746 22.4539C13.5407 26.3183 10.7296 30.222 8.1974 34.2956C8.0794 34.4854 6.74326 36.3524 6.97591 36.4558C8.70012 37.2221 9.91453 39.6628 11.0362 41.0929C14.2346 45.1708 17.4531 49.1459 20.4915 53.3418C22.6487 56.3209 24.5101 59.7921 27.1192 62.4012C27.703 62.985 27.1895 62.0309 27.0061 61.8017C26.5777 61.2662 26.2307 60.7399 25.7393 60.2296C22.4462 56.8098 18.4826 54.1717 15.1192 50.8083C13.6891 49.3783 12.3069 47.8123 11.0362 46.239C10.1995 45.2031 8.86443 44.11 8.23133 42.9704C7.62224 41.8741 7.8028 42.3543 8.84207 43.0157C10.8656 44.3034 12.9898 45.5756 14.9043 47.0421C17.6761 49.1652 20.3935 51.2513 23.0249 53.5454C25.1605 55.4071 26.732 57.8019 28.6347 59.8677C29.4368 60.7386 30.2027 61.9595 30.8741 62.9667C31.3981 63.7526 31.8887 64.5674 32.401 65.3644C32.7958 65.9785 33.0299 66.9261 33.6225 67.4002C33.8158 67.5549 33.875 67.6732 33.9392 67.8979C33.9763 68.0277 34.1341 67.7862 33.7243 67.5586C31.7439 66.4583 29.5577 65.2737 28.024 63.5209C27.1265 62.4952 26.2721 61.4713 25.3661 60.4445C23.5575 58.3947 22.0172 55.9263 19.9712 54.0996C18.0314 52.3676 16.2506 50.4644 14.1804 48.8743C12.7858 47.8031 11.3417 46.6463 10.0975 45.4021C9.56396 44.8686 8.48015 43.8854 8.48015 43.0609C8.48015 40.0091 10.2184 37.6119 11.5791 34.9403C13.8593 30.4633 16.3467 25.8209 19.0664 21.5944C20.9566 18.6569 22.6785 15.5544 24.8798 12.829C25.7428 11.7605 26.5578 10.4385 27.515 9.48125C27.8215 9.17477 28.6138 7.90264 28.6347 7.54722C28.6883 6.63726 28.3313 7.02299 28.0692 7.54722C27.5992 8.4873 26.6811 9.41917 25.9769 10.1938C22.8837 13.5962 20.9383 18.0984 18.6027 22.0241C17.0456 24.6414 15.5372 27.2858 13.9882 29.9073C11.9031 33.4359 9.54347 36.658 7.66582 40.3239" stroke="black" stroke-width="2.58797" stroke-linecap="round"/>
</svg>
