<svg width="37" height="74" viewBox="0 0 37 74" fill="none" xmlns="http://www.w3.org/2000/svg">
<path d="M11.6226 12.8403C12.6007 13.4423 13.1255 15.0789 13.6584 16.0524C14.3485 17.3132 15.1036 18.5366 15.8525 19.7621C17.568 22.5693 19.1581 25.4877 20.9195 28.2673C22.9282 31.4373 25.6897 33.7173 28.124 36.4558C28.9608 37.3972 29.7736 38.3203 30.6688 39.2155C31.3221 39.8688 31.7772 40.5257 31.7772 39.306C31.7772 39.0898 31.5575 38.0845 31.37 38.0845C30.9501 38.0845 30.5615 38.7025 30.2616 38.944C29.2857 39.7302 28.5003 40.6843 27.4906 41.4549C22.5343 45.2373 17.7988 48.9861 14.2691 54.2127C13.0358 56.039 8.56 60.9171 10.1183 59.3587C12.5431 56.9339 15.5272 54.7551 18.1598 52.4709C21.1769 49.8531 24.3605 47.4761 27.7055 45.289C29.2525 44.2775 33.0825 42.0217 32.9986 39.7584C32.9609 38.7379 31.5122 37.5721 30.9176 36.8177C29.6141 35.164 28.2915 33.5408 27.14 31.7734C24.7668 28.1309 22.4167 24.4673 19.9581 20.8818C17.3537 17.0837 15.5439 12.9675 13.5453 8.85919C13.2351 8.22164 13.1913 7.60042 12.6857 7.09482C12.6239 7.033 12.7303 8.20737 12.8441 8.46334C15.0345 13.3918 17.4416 18.1124 20.6254 22.4539C23.4593 26.3183 26.2704 30.222 28.8026 34.2956C28.9206 34.4854 30.2567 36.3524 30.0241 36.4558C28.2999 37.2221 27.0855 39.6628 25.9638 41.0929C22.7654 45.1708 19.5469 49.1459 16.5085 53.3418C14.3513 56.3209 12.4899 59.7921 9.88082 62.4012C9.29702 62.985 9.81054 62.0309 9.99392 61.8017C10.4223 61.2662 10.7693 60.7399 11.2607 60.2296C14.5538 56.8098 18.5174 54.1717 21.8808 50.8083C23.3109 49.3783 24.6931 47.8123 25.9638 46.239C26.8005 45.2031 28.1356 44.11 28.7687 42.9704C29.3778 41.8741 29.1972 42.3543 28.1579 43.0157C26.1344 44.3034 24.0102 45.5756 22.0957 47.0421C19.3239 49.1652 16.6065 51.2513 13.9751 53.5454C11.8395 55.4071 10.268 57.8019 8.36527 59.8677C7.56317 60.7386 6.79729 61.9595 6.12587 62.9667C5.60191 63.7526 5.11135 64.5674 4.59901 65.3644C4.20423 65.9785 3.97015 66.9261 3.37752 67.4002C3.18417 67.5549 3.12503 67.6732 3.06084 67.8979C3.02375 68.0277 2.86595 67.7862 3.27573 67.5586C5.25615 66.4583 7.44225 65.2737 8.97601 63.5209C9.87349 62.4952 10.7279 61.4713 11.6339 60.4445C13.4425 58.3947 14.9828 55.9263 17.0288 54.0996C18.9686 52.3676 20.7494 50.4644 22.8196 48.8743C24.2142 47.8031 25.6583 46.6463 26.9025 45.4021C27.436 44.8686 28.5198 43.8854 28.5198 43.0609C28.5198 40.0091 26.7816 37.6119 25.4209 34.9403C23.1407 30.4633 20.6533 25.8209 17.9336 21.5944C16.0434 18.6569 14.3215 15.5544 12.1202 12.829C11.2572 11.7605 10.4422 10.4385 9.48497 9.48125C9.17849 9.17477 8.38618 7.90264 8.36527 7.54722C8.31174 6.63726 8.66866 7.02299 8.93077 7.54722C9.40081 8.4873 10.3189 9.41917 11.0231 10.1938C14.1163 13.5962 16.0617 18.0984 18.3973 22.0241C19.9544 24.6414 21.4628 27.2858 23.0118 29.9073C25.0969 33.4359 27.4565 36.658 29.3342 40.3239" stroke="black" stroke-width="2.58797" stroke-linecap="round"/>
</svg>
