<svg width="24" height="24" viewBox="0 0 24 24" fill="none" xmlns="http://www.w3.org/2000/svg">
<path d="M22.849 7.68133L13.849 0.638327C13.321 0.224739 12.6697 0 11.999 0C11.3283 0 10.677 0.224739 10.149 0.638327L1.14902 7.68133C0.789811 7.96135 0.499495 8.3199 0.300328 8.7295C0.101161 9.1391 -0.00156748 9.58887 1.80786e-05 10.0443V24.0013H24V10.0443C24.0014 9.58871 23.8983 9.13883 23.6988 8.72922C23.4993 8.31961 23.2086 7.96114 22.849 7.68133ZM22 22.0013H2.00002V10.0443C1.99953 9.89237 2.03389 9.74232 2.10046 9.60571C2.16703 9.46911 2.26404 9.34958 2.38402 9.25633L11.384 2.21333C11.5599 2.07579 11.7767 2.00107 12 2.00107C12.2233 2.00107 12.4401 2.07579 12.616 2.21333L21.616 9.25633C21.736 9.34958 21.833 9.46911 21.8996 9.60571C21.9661 9.74232 22.0005 9.89237 22 10.0443V22.0013ZM12 8.00733C11.01 8.00714 10.0422 8.30085 9.21932 8.85125C8.39641 9.40164 7.75541 10.1839 7.37756 11.099C6.99971 12.0141 6.90201 13.0207 7.09685 13.9914C7.29169 14.962 7.7703 15.853 8.47202 16.5513L12 20.0013L15.536 16.5433C16.2355 15.8441 16.7118 14.9531 16.9048 13.983C17.0978 13.013 16.9988 12.0075 16.6203 11.0938C16.2418 10.18 15.6008 9.39908 14.7784 8.84968C13.9559 8.30029 12.9891 8.00714 12 8.00733ZM14.129 15.1213L12 17.2013L9.87802 15.1293C9.45886 14.7101 9.1733 14.1761 9.05741 13.5947C8.94152 13.0133 9.00049 12.4105 9.22687 11.8626C9.45325 11.3147 9.83689 10.8462 10.3294 10.5161C10.8218 10.1861 11.401 10.0093 11.9939 10.0082C12.5867 10.0071 13.1666 10.1816 13.6603 10.5098C14.154 10.838 14.5394 11.3051 14.7679 11.8522C14.9963 12.3993 15.0575 13.0017 14.9438 13.5836C14.8301 14.1654 14.5466 14.7005 14.129 15.1213ZM13 13.0013C13 13.1991 12.9414 13.3924 12.8315 13.5569C12.7216 13.7213 12.5654 13.8495 12.3827 13.9252C12.2 14.0009 11.9989 14.0207 11.8049 13.9821C11.6109 13.9435 11.4328 13.8483 11.2929 13.7084C11.1531 13.5686 11.0578 13.3904 11.0192 13.1964C10.9806 13.0024 11.0005 12.8014 11.0761 12.6186C11.1518 12.4359 11.28 12.2797 11.4444 12.1699C11.6089 12.06 11.8022 12.0013 12 12.0013C12.2652 12.0013 12.5196 12.1067 12.7071 12.2942C12.8947 12.4818 13 12.7361 13 13.0013Z" fill="black"/>
</svg>
